<?xml version="1.0" encoding="UTF-8" standalone="no"?>
<svg
   id="Layer_1"
   data-name="Layer 1"
   version="1.1"
   viewBox="0 0 800 10527"
   sodipodi:docname="platform.svg"
   inkscape:version="1.3.2 (091e20e, 2023-11-25, custom)"
   xmlns:inkscape="http://www.inkscape.org/namespaces/inkscape"
   xmlns:sodipodi="http://sodipodi.sourceforge.net/DTD/sodipodi-0.dtd"
   xmlns="http://www.w3.org/2000/svg"
   xmlns:svg="http://www.w3.org/2000/svg">
  <sodipodi:namedview
     id="namedview1"
     pagecolor="#ffffff"
     bordercolor="#000000"
     borderopacity="0.25"
     inkscape:showpageshadow="2"
     inkscape:pageopacity="0.0"
     inkscape:pagecheckerboard="0"
     inkscape:deskcolor="#d1d1d1"
     inkscape:zoom="0.04188098"
     inkscape:cx="-2304.1486"
     inkscape:cy="6052.8669"
     inkscape:window-width="2560"
     inkscape:window-height="1494"
     inkscape:window-x="-11"
     inkscape:window-y="-11"
     inkscape:window-maximized="1"
     inkscape:current-layer="Layer_1" />
  <defs
     id="defs1">
    <style
       id="style1">
      .cls-1 {
        fill: #bdbd16;
        stroke-width: 0px;
      }
    </style>
  </defs>
  <path
     d="m 498.1,3228 v 49.8 H 298.9 V 3228 Z"
     id="path38" />
  <path
     d="m 547.9,3228 v 49.8 H 800 V 3228 Z"
     id="path37" />
  <path
     d="m 249,2630.4 h -99.6 v -49.8 H 249 Z"
     id="path36" />
  <path
     d="m 0,2730 h 99.6 v 49.8 H 0 Z"
     id="path35" />
  <path
     d="m 697.3,4983.7 v 49.8 h -99.6 v -49.8 z"
     id="path34" />
  <path
     d="m 448.2,6505.8 v 49.8 h 99.6 v -49.8 z"
     id="path33" />
  <path
     d="m 249,6505.8 v 49.8 h 99.6 v -49.8 z"
     id="path32" />
  <path
     d="m 348.6,6356.4 v 49.8 h 99.6 v -49.8 z"
     id="path31" />
  <path
     d="M 348.6,6207 H 149.4 v 49.8 h 199.2 z"
     id="path30" />
  <path
     d="m 298.8,5954.9 h 49.8 v -49.8 h -49.8 z"
     id="path29" />
  <path
     d="m 498.1,6107.4 v -49.8 h -249 v 49.8 z"
     id="path28" />
  <path
     d="m 348.6,5805.4 v -49.8 H 249 v 49.8 z"
     id="path27" />
  <path
     d="m 547.9,6356.4 v 49.8 h 199.2 v -49.8 z"
     id="path26" />
  <path
     d="m 498.1,5905.1 v 49.8 h 99.6 v -49.8 z"
     id="path25" />
  <path
     d="M 647.5,6256.8 V 6207 H 448.3 v 49.8 z"
     id="path24" />
  <path
     d="m 547.9,5805.4 v -49.8 h -99.6 v 49.8 z"
     id="path23" />
  <path
     d="M 348.6,5456.8 H 149.4 v 49.8 h 199.2 z"
     id="path22" />
  <path
     d="m 348.6,5606.2 v 49.8 h 99.6 v -49.8 z"
     id="path21" />
  <path
     d="m 547.9,5606.2 v 49.8 h 199.2 v -49.8 z"
     id="path20" />
  <path
     d="m 647.5,5506.6 v -49.8 H 448.3 v 49.8 z"
     id="path19" />
  <path
     d="m 498.1,5133.1 v 49.8 h 99.6 v -49.8 z"
     id="path18" />
  <path
     d="m 249,5282.5 v 49.8 h 249 v -49.8 z"
     id="path17" />
  <path
     d="m 298.8,5133.1 h 49.8 v 49.8 h -49.8 z"
     id="path16" />
  <path
     d="m 298.8,5033.5 v 49.8 h -99.6 v -49.8 z"
     id="path15" />
  <path
     d="m 249,4884 v 49.8 h 99.6 V 4884 Z"
     id="path14" />
  <path
     d="M 99.6,4024.9 H 49.8 v 52.9 h 49.8 z"
     id="path13" />
  <path
     d="M 99.6,3726.1 H 49.8 v 49.8 h 49.8 z"
     id="path12" />
  <path
     d="M 149.4,3875.5 H 99.6 v 49.8 h 49.8 z"
     id="path11" />
  <path
     d="m 96.5,4784.4 v 49.8 h 52.9 v -49.8 z"
     id="path10" />
  <path
     d="m 49.8,4628.8 v 49.8 h 49.8 v -49.8 z"
     id="path9" />
  <path
     d="m 99.6,4479.4 v 49.8 h 49.8 v -49.8 z"
     id="path8" />
  <path
     d="m 49.8,4326.8 v 49.8 h 49.8 v -49.8 z"
     id="path7" />
  <path
     d="m 149.4,4177.4 v 49.8 H 99.6 v -49.8 z"
     id="path6" />
  <path
     d="m 398.4,3078.6 h 49.8 v 49.8 h -49.8 z"
     id="path5" />
  <path
     d="m 398.4,2979 h 49.8 v 49.8 h -49.8 z"
     id="path4" />
  <path
     d="m 199.2,2082.5 h 199.2 v -49.8 H 199.2 Z"
     id="path3" />
  <path
     d="m 647.5,1136.2 v 49.8 h 99.6 v -49.8 z"
     id="path2" />
  <path
     d="m 547.9,986.8 v 49.8 h 99.6 v -49.8 z"
     id="path1" />
  <path
     d="m 149.4,687.9 v 49.8 H 99.6 v -49.8 z"
     id="Platforms" />
</svg>
