<?xml version="1.0" encoding="UTF-8" standalone="no"?>
<svg
   id="Layer_1"
   data-name="Layer 1"
   version="1.1"
   viewBox="0 0 800 10527"
   sodipodi:docname="solid.svg"
   inkscape:version="1.3.2 (091e20e, 2023-11-25, custom)"
   xmlns:inkscape="http://www.inkscape.org/namespaces/inkscape"
   xmlns:sodipodi="http://sodipodi.sourceforge.net/DTD/sodipodi-0.dtd"
   xmlns="http://www.w3.org/2000/svg"
   xmlns:svg="http://www.w3.org/2000/svg">
  <sodipodi:namedview
     id="namedview1"
     pagecolor="#ffffff"
     bordercolor="#000000"
     borderopacity="0.25"
     inkscape:showpageshadow="2"
     inkscape:pageopacity="0.0"
     inkscape:pagecheckerboard="0"
     inkscape:deskcolor="#d1d1d1"
     inkscape:zoom="2.6803827"
     inkscape:cx="113.78972"
     inkscape:cy="10347.216"
     inkscape:window-width="2560"
     inkscape:window-height="1494"
     inkscape:window-x="-11"
     inkscape:window-y="-11"
     inkscape:window-maximized="1"
     inkscape:current-layer="Layer_1" />
  <defs
     id="defs1">
    <style
       id="style1">
      .cls-1 {
        fill: #511800;
        stroke-width: 0px;
      }
    </style>
  </defs>
  <path
     id="rect1"
     d="M 40.084084,10438.646 H 145.07973 v 62.787 H 40.084084 Z"
     inkscape:label="Unnesissary Path Cause Final One Breaks for &quot;No Reason&quot;!!!" />
  <path
     d="m 398.4,4376.7 v 52.9 H 199.2 v 703.5 H 0 v -199.2 h 149.4 v -756.4 h 49.8 v 199.2 z"
     id="path38" />
  <path
     d="m 398.4,4227.2 v 49.8 h 199.2 v -49.8 z"
     id="path37" />
  <path
     d="m 647.5,3477 v -99.6 H 597.7 V 3477 H 298.9 v 99.6 H 149.5 v 501.2 h 49.8 v -451.4 h 199.2 v -99.6 H 697.3 V 3477 Z"
     id="path36" />
  <path
     d="m 199.2,4077.8 v 49.8 h 199.2 v -49.8 z"
     id="path35" />
  <path
     d="M 0,3228 V 4784.4 H 49.8 V 3228 H 0 Z"
     id="path34" />
  <path
     d="m 448.2,4479.4 v 49.8 h 199.2 v -49.8 z"
     id="path33" />
  <path
     d="m 747.1,3427.2 v 199.2 h -249 v 49.8 h 199.2 v 501.2 h 49.8 V 4579 h -49.8 v 152.5 H 348.7 v 401.6 h 99.6 V 4784.5 H 800.1 V 3427.3 h -52.9 z"
     id="path32" />
  <path
     d="m 697.3,4933.9 v 199.2 H 800 v -199.2 z"
     id="path31" />
  <path
     d="m 647.5,7003.9 v -99.6 H 498.1 v -99.6 H 348.7 v -99.6 H 199.3 v -49.8 H 99.7 v 99.6 h 149.4 v 99.6 h 149.4 v 99.6 h 149.4 v 102.7 h 199.2 v 348.6 H 597.7 V 7505 H 448.3 v 99.6 H 298.9 v 99.6 H 149.5 v 149.4 H 0 v 199.2 h 152.5 v 99.6 h 46.7 V 7853.6 H 249 V 7754 h 149.4 v -99.6 h 149.4 v -99.6 h 149.4 v -99.6 H 799.9 V 7003.8 H 647.4 Z"
     id="path30" />
  <path
     d="m 700.4,8152.5 v 199.2 H 302 v 49.8 h 398.4 v 298.8 h -99.6 v 49.8 H 252.1 v -49.8 H 52.9 v -99.6 h 49.8 v -49.8 h 199.2 v 49.8 h 249 v -49.8 H 401.5 v -49.8 H 102.7 v -249 h 398.4 v -49.8 H 152.5 v -49.8 H 0 v 709.7 h 800 v -709.7 z"
     id="path29" />
  <path
     d="m 697.3,7853.7 v 49.8 h 49.8 v 99.6 H 398.5 v 49.8 H 800.1 V 7853.7 H 697.4 Z"
     id="path28" />
  <path
     d="m 249,3775.9 v 49.8 h 199.2 v -49.8 z"
     id="path27" />
  <path
     d="m 448.2,3925.3 v 49.8 h 199.2 v -49.8 z"
     id="path26" />
  <path
     d="m 498.1,7256 v -49.8 H 348.7 v -99.6 H 199.3 V 7003.9 H 0 v 49.8 h 99.6 v 102.7 H 249 v 99.6 h 199.2 v 99.6 h 99.6 V 7256 H 498 Z"
     id="path25" />
  <path
     d="m 252.1,8052.9 h 49.8 v 49.8 h -49.8 z"
     id="path22" />
  <path
     d="m 0,2879.4 v 49.8 h 398.4 v -49.8 z"
     id="path21" />
  <path
     d="m 249,2580.5 v 199.2 h 49.8 v -199.2 z"
     id="path20" />
  <path
     d="m 99.6,2580.5 v 199.2 h 49.8 v -199.2 z"
     id="path19" />
  <path
     d="m 398.4,2580.5 v 199.2 h 49.8 v -199.2 z"
     id="path18" />
  <path
     d="m 547.9,2580.5 v 199.2 h 49.8 v -199.2 z"
     id="path17" />
  <path
     d="m 398.4,2331.5 h 49.8 v -49.8 h -49.8 z"
     id="path16" />
  <path
     d="m 547.9,2331.5 h 49.8 v -49.8 h -49.8 z"
     id="path15" />
  <path
     d="m 249,2331.5 h 49.8 v -49.8 H 249 Z"
     id="path14" />
  <path
     d="m 647.5,2431.1 v 199.2 h 49.8 v -199.2 z"
     id="path13" />
  <path
     d="m 99.6,2182.1 h 49.8 v 49.8 H 99.6 Z"
     id="path12" />
  <path
     d="m 498.1,1833.5 v 99.6 H 348.7 v 49.8 h 249 v -99.6 H 800 v -49.8 z"
     id="path11" />
  <path
     d="M 597.7,1684 V 1534.6 H 398.5 v 99.6 h -99.6 v 49.8 z"
     id="path10" />
  <path
     d="m 249,1883.3 v -99.6 h 99.6 v -49.8 H 149.4 v 99.6 H 0 v 49.8 z"
     id="path9" />
  <path
     d="M 597.7,1385.2 V 1435 H 800 v -49.8 z"
     id="path8" />
  <path
     d="m 747.1,638.1 v 597.7 H 298.9 v 149.4 H 0 V 1435 H 398.4 V 1285.6 H 800 V 638.1 Z"
     id="path7" />
  <path
     d="M 547.9,289.5 V 189.9 H 398.5 V 140.1 H 199.3 v 49.8 H 0 V 937 H 199.2 V 887.2 H 348.6 V 937 H 547.8 V 887.2 H 398.4 V 837.4 H 49.8 V 638.2 H 99.6 V 538.6 H 49.8 v -249 h 149.4 v -49.8 h 199.2 v 49.8 h 149.4 z"
     id="path6" />
  <path
     d="M 800,140.1 V 538.5 H 199.2 v 99.6 H 149.4 V 488.7 h 49.8 v -49.8 h 547.9 v -99.6 h -99.6 v -99.6 h -49.8 v -99.6 z"
     id="path5" />
  <path
     d="m 597.7,9494.2 v -49.8 H 199.2 v 49.8 H 49.8 v -547.9 h 697.3 v 398.4 h -99.6 v 99.6 h 49.8 v 49.8 h -99.6 z"
     id="path4" />
  <path
     d="M 0,8871.6 V 9544 h 800 v -672.4 z"
     id="path3" />
  <path
     d="M 750.2,9659.1 H 52.9 v 99.6 h 49.8 v 49.8 H 52.9 v 99.6 h 99.6 v 49.8 H 52.9 v 99.6 h 149.4 v 49.8 H 52.9 v 99.6 h 647.5 v -99.6 H 551 v -49.8 h 199.2 v -99.6 H 600.8 v -49.8 h 149.4 v -99.6 h -99.6 v -49.8 h 99.6 z"
     id="path2" />
  <path
     d="m 800,9578.2 v 697.3 H 0 v -697.3 z"
     id="path1" />
  <path
     d="m 451.4,10057.6 v 49.8 h -99.6 v -49.8 z"
     id="Solid" />
</svg>
