<?xml version="1.0" encoding="UTF-8" standalone="no"?>
<!-- Created with Inkscape (http://www.inkscape.org/) -->

<svg
   version="1.1"
   id="svg1"
   width="800"
   height="10278"
   viewBox="0 0 800 10278"
   xmlns:xlink="http://www.w3.org/1999/xlink"
   xmlns="http://www.w3.org/2000/svg"
   xmlns:svg="http://www.w3.org/2000/svg">
  <defs
     id="defs1" />
  <g
     id="g1">
    <image
       width="800"
       height="10278"
       preserveAspectRatio="none"
       xlink:href="stage11bg%20Full%20Black%20and%20White.png"
       id="image1" />
    <path
       style="fill:#000000"
       d="M 0,10278 V 8152 h 152 v -98 H 0 v -201 h 149 v -151 h 149 v -99 h 149 v -99 H 597 V 7404 H 747 V 7058 H 548 V 6955 H 398 V 6855 H 248 V 6755 H 99 v -100 h 100 v 49 h 151 v 100 h 148 v 99 h 150 v 100 h 152 v 451 H 698 v 103 H 549 v 99 H 399 v 99 H 249 v 99 h -46 v 299 h -49 v 47 h 349 v 51 H 103 v 250 h 297.96444 l 0.53556,48.5 150.5,0.5127 V 8600 H 301 v -51 H 104 v 150 h 149 v 50 h 348 v -49 h 98 V 8399 H 300 v -49 h 399 v -198 h 101 v 1063 1063 z m 700.0185,-72 -0.5185,-100.5 -149.5,-0.513 V 10056 h 149 v -98 h -99 v -26 h 102 v -25 h 47 v -49 -49 h -99 v -27 h 99.01549 L 748.5,9660.5 54,9659.9972 V 9757 h 50 v 49 H 54 v 126 h 99 v 26 H 53 v 124 h 149 v 26 H 53 v 98 z M 351,10108 v -27 h 101 v 27 z M 198,9494 v -50 h 399 v 50 h 99 v -55 h -50 v -95 H 746 V 8942 H 51.32347 L 50,9494 Z m 53,-1393 v -49 h 52 v 49 z m 147,-51 v -48 h 298 v -149 h 104 v 98.5 98.5 z m 50,-693 V 7257 H 249 V 7157 H 99 V 7052 H 0 v -49 h 201 v 102 h 148 v 100 h 150 v 50 h 50 v 102 z M 248,6541 v -35 l 102,-1.3199 V 6541 Z m 200,-1 v -35 h 101 v 35 z M 348,6391 v -35 h 101 v 35 z m 199,0 v -35 h 201 v 35 z M 149,6242 v -35 h 200 v 35 z m 298,0 v -35 l 202,-1.3278 V 6242 Z M 249,6092 v -34 h 249 v 34 z m 249,-149 v -38 h 100 v 38 z m -199,-1 v -37 h 50 v 37 z m 148,-151 v -36 h 102 v 36 z m -199,-1 v -35 h 101 v 35 z m 100,-149 v -35 l 101,-1.3225 V 5641 Z m 199,0 v -36 h 201 v 36 z M 149,5492 v -35 h 201 v 35 z m 298,0 v -36 h 202 v 36 z M 248,5318 v -36 h 251 v 36 z m 50,-150 v -36 h 51.3148 L 348,4919 h -99 v -35 h 99 v -152 h 352 v -150 h 50 V 4176 H 697 V 3925 3674 H 501 v -44 h 249 v -199 h 50 V 4106.5 4782 H 449 v 176 176 h -99 v 34 z m 199,0 v -36 h 102 v 36 z M 0,5134 V 4933 H 146 V 4819 H 96 v -35 h 51 V 4514 H 99 v -35 h 50 V 4212 H 99 v -35 h 50 V 3910 H 99 v -35 h 50 v -299 h 149 v -100 h 249 v -99 h 101 v 99 h 50 v 48 H 398 v 103 H 200 v 452 h 198 v 47 H 200 v 127 127 h 198 v 47 H 199 v 303 303 h 100 v 35 H 199 v 66 z m 696,0 v -115 h -99 v -36 h 100 v -50 h 103 v 201 z M 0,4786 V 3227 h 50 v 498 h 50 v 36 H 50 v 263 h 50 v 39 H 50 v 263 h 50 v 36 H 50 v 266 h 51 v 42 H 50 v 116 z m 451,-259 v -44 l 197,-1.3282 V 4527 Z m -49,-252 v -45 h 196 v 45 z m 50,-302 v -44 h 196 v 44 z M 253,3822 v -42 h 195 v 42 z m 45,-559 v -35 h 201 v 35 z m 249,0 v -35 h 253 v 35 z M 398,3114 v -36 h 52 v 36 z m 0,-100 v -35 h 51 v 35 z M 0,2927 v -49 h 399 v 49 z m 99,-146 v -16 H 0 v -36 h 99 v -149 h 200 v 201 H 273.5 248 v -166 h -98 v 166 z m 299,0 v -199 h 50 v 199 z m 149,0 v -201 h 51 v 201 z m 99,-150 v -201 h 52 v 201 z M 247,2332 v -52 h 52 v 52 z m 150,0 v -52 h 52 v 52 z m 150,0 v -52 h 51 v 52 z M 98,2233 v -53 h 52 v 53 z m 101,-165 v -18 -18 h 201 v 36 z m 149,-85 v -51 h 150 v -100 h 302 v 49 H 598 v 102 z M 0,1883 v -50 h 149 v -100 h 200 v 51 H 249 v 99 z m 298,-198 v -52 h 100 v -99 h 200 v 151 z m 299,-250 v -51 h 203 v 51 z M 0,1432 v -48 h 298 v -149 h 448 v -64 H 646 v -36 H 746 V 637 h 54 v 646 H 399 v 149 z m 547,-410 v -36 h 102 v 36 z M 0,937 V 563 189 h 198 v -50 h 201 v 49 H 548 V 289 H 398 V 239 H 199 v 51 H 50 v 247 h 50 V 638 H 50 v 198 h 348 v 50 h 150 v 51 H 348 V 887 H 200 v 50 z M 99,723 v -36 h 51 v 36 z m 50,-84 V 488 h 50 V 438 H 750 V 339 H 646 V 240 H 596 V 138 H 800 V 539 H 200 v 100 z"
       id="path1" />
  </g>
</svg>
